<?xml version="1.0" encoding="UTF-8" standalone="no"?>
<svg width="33px" height="33px" viewBox="0 0 33 33" version="1.1" xmlns="http://www.w3.org/2000/svg" xmlns:xlink="http://www.w3.org/1999/xlink" xmlns:sketch="http://www.bohemiancoding.com/sketch/ns">
    <!-- Generator: Sketch 3.3.1 (12002) - http://www.bohemiancoding.com/sketch -->
    <title>Development + Shape</title>
    <desc>Created with Sketch.</desc>
    <defs></defs>
    <g id="Page-1" stroke="none" stroke-width="1" fill="none" fill-rule="evenodd" sketch:type="MSPage">
        <g id="Desktop" sketch:type="MSArtboardGroup" transform="translate(-797.000000, -195.000000)" fill="#C0C0C0">
            <g id="Development-+-Shape-+-รู้จักกับ-Hubot,-วิธ-+-DATE-+-CAte" sketch:type="MSLayerGroup" transform="translate(73.000000, 190.800000)">
                <g id="รู้จักกับ-Hubot,-วิธ-+-DATE-+-CAte" sketch:type="MSShapeGroup">
                    <g id="Meta" transform="translate(623.000000, 0.000000)">
                        <g id="CAte" transform="translate(101.000000, 4.000000)">
                            <g id="Development-+-Shape">
                                <path d="M32.1401258,27.7877314 L26.486389,23.076338 C26.495389,22.9039623 26.500014,22.7305866 26.500014,22.5560859 L26.500014,20.5560781 L31.5000023,20.5560781 C32.052251,20.5560781 32.5,20.1083264 32.5,19.5560742 C32.5,19.0038221 32.052251,18.5560703 31.5000023,18.5560703 L26.500014,18.5560703 L26.500014,16.2766864 L31.8158766,14.5048045 C32.3397504,14.3301788 32.6229997,13.7638016 32.4482501,13.2400495 C32.2737505,12.7161725 31.7072519,12.4330464 31.1836281,12.6075471 L26.490264,14.1720532 C26.3583893,10.7006646 24.4505188,7.67690282 21.6491503,5.98714622 C22.9150224,1.61625414 31.9025014,1.55600391 32.0002512,1.55600391 C32.2761255,1.55575391 32.5,1.33187803 32.5,1.05587695 C32.49975,0.779750874 32.2761255,0.556 32.0000012,0.556 C31.5717522,0.556 22.3613987,0.618500244 20.7431524,5.50351933 C19.4541555,4.89689196 18.0164088,4.55601563 16.5000374,4.55601563 C14.9836659,4.55601563 13.5459193,4.89701696 12.2569223,5.50351933 C10.638801,0.618500244 1.42832254,0.556 1.00007354,0.556 C0.723949184,0.556 0.500074707,0.779875875 0.500074707,1.05600195 C0.500074707,1.33212803 0.723949184,1.55600391 1.00007354,1.55600391 C1.09769831,1.55600391 10.0861773,1.61112912 11.3511744,5.98702121 C8.54993091,7.67665282 6.64168537,10.7005396 6.50993568,14.1719282 L1.81657163,12.6074221 C1.29269786,12.4329214 0.726199179,12.7160475 0.551699587,13.2399245 C0.377199994,13.7638016 0.660324333,14.3300538 1.18432311,14.5046795 L6.5001857,16.2765614 L6.5001857,18.5559453 L1.50019737,18.5559453 C0.947948661,18.5559453 0.500199707,19.0036971 0.500199707,19.5559492 C0.500199707,20.1082014 0.947948661,20.5559531 1.50019737,20.5559531 L6.5001857,20.5559531 L6.5001857,22.5559609 C6.5001857,22.7304616 6.50481069,22.9038373 6.51356067,23.076213 L0.859948867,27.7876064 C0.435574858,28.1412328 0.378199992,28.7717352 0.731824166,29.1961119 C0.929573704,29.4333628 1.21394804,29.5559883 1.50057237,29.5559883 C1.72644684,29.5559883 1.95344631,29.480113 2.13994588,29.3242374 L6.90193476,25.3560969 C8.11630693,29.5109881 11.958048,32.556 16.5000374,32.556 C21.0420267,32.556 24.8837678,29.5111131 26.0981399,25.3560969 L30.8598788,29.3242374 C31.0468784,29.479988 31.2737529,29.5559883 31.4995023,29.5559883 C31.7858767,29.5559883 32.070251,29.4334878 32.2682505,29.1961119 C32.6216247,28.7718602 32.5644998,28.1413578 32.1401258,27.7877314 L32.1401258,27.7877314 Z M16.5000374,6.55589844 C20.918277,6.55589844 24.5000187,10.1376624 24.5000187,14.5559297 L24.5000187,15.5559336 L8.50005603,15.5559336 L8.50005603,14.5559297 C8.50005603,10.1376624 12.0817977,6.55589844 16.5000374,6.55589844 L16.5000374,6.55589844 Z M16.5000374,30.5559922 C12.0817977,30.5559922 8.50005603,26.9742282 8.50005603,22.5559609 L8.50005603,16.5559375 L24.5000187,16.5559375 L24.5000187,22.5559609 C24.5000187,26.9742282 20.918277,30.5559922 16.5000374,30.5559922 L16.5000374,30.5559922 Z" id="Shape"></path>
                            </g>
                        </g>
                    </g>
                </g>
            </g>
        </g>
    </g>
</svg>